<svg id="visual" viewBox="0 0 900 600" width="900" height="600" xmlns="http://www.w3.org/2000/svg" xmlns:xlink="http://www.w3.org/1999/xlink" version="1.1">
  <!-- <rect x="0" y="0" width="900" height="600" fill="#001220"></rect> -->
  <g fill="#a1a1a1">
    <circle r="8" cx="748" cy="303"></circle>
    <circle r="8" cx="652" cy="430"></circle>
    <circle r="7" cx="512" cy="424"></circle>
    <circle r="7" cx="879" cy="418"></circle>
    <circle r="7" cx="159" cy="318"></circle>
    <circle r="7" cx="156" cy="423"></circle>
    <circle r="7" cx="38" cy="551"></circle>
    <circle r="7" cx="744" cy="370"></circle>
    <circle r="7" cx="1" cy="336"></circle>
    <circle r="7" cx="215" cy="415"></circle>
    <circle r="7" cx="28" cy="343"></circle>
    <circle r="7" cx="414" cy="294"></circle>
    <circle r="7" cx="220" cy="508"></circle>
    <circle r="7" cx="122" cy="541"></circle>
    <circle r="7" cx="799" cy="520"></circle>
    <circle r="7" cx="138" cy="141"></circle>
    <circle r="7" cx="64" cy="187"></circle>
    <circle r="7" cx="352" cy="593"></circle>
    <circle r="7" cx="509" cy="499"></circle>
    <circle r="7" cx="420" cy="165"></circle>
    <circle r="7" cx="200" cy="128"></circle>
    <circle r="7" cx="576" cy="186"></circle>
    <circle r="7" cx="824" cy="495"></circle>
    <circle r="7" cx="467" cy="310"></circle>
    <circle r="7" cx="401" cy="229"></circle>
    <circle r="7" cx="344" cy="527"></circle>
    <circle r="7" cx="837" cy="29"></circle>
    <circle r="7" cx="398" cy="42"></circle>
    <circle r="7" cx="244" cy="337"></circle>
    <circle r="7" cx="458" cy="216"></circle>
    <circle r="7" cx="893" cy="17"></circle>
    <circle r="7" cx="887" cy="218"></circle>
    <circle r="7" cx="33" cy="18"></circle>
    <circle r="7" cx="716" cy="535"></circle>
  </g>
</svg>
